<?xml version="1.0" encoding="UTF-8" standalone="no"?>
<svg
   xmlns:dc="http://purl.org/dc/elements/1.1/"
   xmlns:cc="http://creativecommons.org/ns#"
   xmlns:rdf="http://www.w3.org/1999/02/22-rdf-syntax-ns#"
   xmlns:svg="http://www.w3.org/2000/svg"
   xmlns="http://www.w3.org/2000/svg"
   xmlns:sodipodi="http://sodipodi.sourceforge.net/DTD/sodipodi-0.dtd"
   xmlns:inkscape="http://www.inkscape.org/namespaces/inkscape"
   inkscape:version="1.0 (4035a4fb49, 2020-05-01)"
   sodipodi:docname="263385.svg"
   xml:space="preserve"
   style="enable-background:new 0 0 512 512;"
   viewBox="0 0 512 512"
   y="0px"
   x="0px"
   id="Layer_1"
   version="1.1"><metadata
   id="metadata109"><rdf:RDF><cc:Work
       rdf:about=""><dc:format>image/svg+xml</dc:format><dc:type
         rdf:resource="http://purl.org/dc/dcmitype/StillImage" /></cc:Work></rdf:RDF></metadata><defs
   id="defs107" /><sodipodi:namedview
   inkscape:current-layer="Layer_1"
   inkscape:window-maximized="1"
   inkscape:window-y="308"
   inkscape:window-x="-8"
   inkscape:cy="286.55364"
   inkscape:cx="8.3297436"
   inkscape:zoom="0.79825726"
   showgrid="false"
   id="namedview105"
   inkscape:window-height="745"
   inkscape:window-width="1366"
   inkscape:pageshadow="2"
   inkscape:pageopacity="0"
   guidetolerance="10"
   gridtolerance="10"
   objecttolerance="10"
   borderopacity="1"
   bordercolor="#666666"
   pagecolor="#ffffff" />



















<g
   inkscape:export-ydpi="23.561932"
   inkscape:export-xdpi="23.561932"
   transform="rotate(90,256,255.99975)"
   id="g182"><g
     id="g10">
	<path
   style="fill:#ffe164"
   d="m 132.412,467.862 v 0 c -4.875,0 -8.828,-3.953 -8.828,-8.828 V 335.446 c 0,-4.875 3.953,-8.828 8.828,-8.828 v 0 c 4.875,0 8.828,3.953 8.828,8.828 v 123.588 c 0,4.875 -3.953,8.828 -8.828,8.828 z"
   id="path2" />
	<path
   style="fill:#ffe164"
   d="m 379.589,467.862 v 0 c -4.875,0 -8.828,-3.953 -8.828,-8.828 V 335.446 c 0,-4.875 3.953,-8.828 8.828,-8.828 v 0 c 4.875,0 8.828,3.953 8.828,8.828 v 123.588 c 0,4.875 -3.953,8.828 -8.828,8.828 z"
   id="path4" />
	<path
   style="fill:#ffe164"
   d="m 344.278,370.756 v 0 c -4.875,0 -8.828,-3.953 -8.828,-8.828 v -97.105 c 0,-4.875 3.953,-8.828 8.828,-8.828 v 0 c 4.875,0 8.828,3.953 8.828,8.828 v 97.105 c 0,4.876 -3.953,8.828 -8.828,8.828 z"
   id="path6" />
	<path
   style="fill:#ffe164"
   d="m 167.723,370.756 v 0 c -4.875,0 -8.828,-3.953 -8.828,-8.828 v -97.105 c 0,-4.875 3.953,-8.828 8.828,-8.828 v 0 c 4.875,0 8.828,3.953 8.828,8.828 v 97.105 c 0,4.876 -3.953,8.828 -8.828,8.828 z"
   id="path8" />
</g><path
     style="fill:#ff6464"
     d="M 256,150.063 130.21,250.695 c -4.188,3.35 -6.626,8.423 -6.626,13.787 v 44.481 L 256,282.479 388.416,308.962 v -44.481 c 0,-5.364 -2.438,-10.437 -6.626,-13.787 z"
     id="path12" /><path
     style="fill:#ffe164"
     d="m 225.103,361.906 c 0,29.551 3.571,93.193 24.392,145.365 2.516,6.305 10.494,6.305 13.01,0 20.821,-52.172 24.392,-115.814 24.392,-145.365 z"
     id="path14" /><path
     style="fill:#ffffff"
     d="m 238.345,361.906 c 0,14.173 2.452,46.271 17.655,70.032 15.204,-23.761 17.655,-55.859 17.655,-70.032 z"
     id="path16" /><path
     style="fill:#959cb3"
     d="m 299.876,350.958 -10.499,-41.997 h -66.753 l -10.499,41.997 c -0.66,2.638 -0.065,5.431 1.608,7.573 1.673,2.142 4.237,3.396 6.957,3.396 h 70.622 c 2.72,0 5.285,-1.255 6.957,-3.396 1.673,-2.142 2.266,-4.935 1.607,-7.573 z"
     id="path18" /><path
     style="fill:#707487"
     d="m 238.609,350.958 10.499,-41.997 h -26.483 l -10.499,41.997 c -0.66,2.638 -0.065,5.431 1.608,7.573 1.673,2.142 4.237,3.396 6.957,3.396 h 26.483 c -2.72,0 -5.285,-1.255 -6.957,-3.396 -1.672,-2.141 -2.268,-4.935 -1.608,-7.573 z"
     id="path20" /><path
     style="fill:#e4eaf6"
     d="M 248.639,4.316 207.53,77.773 c -2.948,5.269 -4.497,11.207 -4.497,17.245 v 213.945 c 0,9.751 7.904,17.655 17.655,17.655 h 70.622 c 9.751,0 17.655,-7.904 17.655,-17.655 V 95.013 c 0,-6.038 -1.548,-11.976 -4.498,-17.245 L 263.362,4.316 c -3.221,-5.755 -11.502,-5.755 -14.723,0 z"
     id="path22" /><path
     style="fill:#c7cfe2"
     d="M 238.345,308.962 V 95.018 c 0,-6.038 0.644,-11.976 1.874,-17.244 L 257.347,4.317 c 0.321,-1.474 0.898,-2.664 1.581,-3.729 -3.669,-1.35 -8.118,-0.15 -10.289,3.729 L 207.53,77.773 c -2.948,5.269 -4.497,11.206 -4.497,17.244 v 213.945 c 0,9.75 7.905,17.655 17.655,17.655 H 245.7 c -4.061,10e-4 -7.355,-7.904 -7.355,-17.655 z"
     id="path24" /><path
     style="fill:#ff6464"
     d="m 263.362,4.316 c -3.22,-5.753 -11.501,-5.753 -14.721,0 l -41.11,73.457 c -2.948,5.269 -4.497,11.206 -4.497,17.244 v 46.218 H 308.967 V 95.013 c 0,-6.038 -1.548,-11.976 -4.498,-17.245 z"
     id="path26" /><path
     style="fill:#d2555a"
     d="m 238.345,95.018 c 0,-6.038 0.644,-11.976 1.874,-17.244 L 257.347,4.317 c 0.321,-1.474 0.898,-2.664 1.581,-3.729 -1.788,-0.658 -3.755,-0.686 -5.559,-0.119 -0.135,0.044 -0.262,0.108 -0.393,0.158 -0.689,0.256 -1.334,0.626 -1.944,1.069 -0.19,0.14 -0.386,0.269 -0.566,0.428 -0.694,0.607 -1.333,1.31 -1.826,2.193 l -41.109,73.456 c -2.948,5.269 -4.497,11.206 -4.497,17.244 v 46.218 h 35.311 z"
     id="path28" /><path
     style="fill:#c7cfe2"
     d="M 308.967,141.235 H 203.034 v 17.655 h 22.637 c 6.089,10.511 17.302,17.655 30.33,17.655 13.028,0 24.241,-7.145 30.33,-17.655 h 22.637 v -17.655 z"
     id="path30" /><circle
     style="fill:#5b5d6e"
     cx="256.005"
     cy="141.233"
     r="17.655001"
     id="circle32" /><path
     style="fill:#afb9d2"
     d="m 238.345,171.716 v -30.482 h -35.311 v 17.655 h 22.637 c 3.065,5.293 7.434,9.724 12.674,12.827 z"
     id="path34" /><path
     style="fill:#707487"
     d="m 248.64,4.316 -32.162,57.47 h 79.047 L 263.361,4.316 c -3.22,-5.755 -11.501,-5.755 -14.721,0 z"
     id="path36" /><path
     style="fill:#5b5d6e"
     d="m 243.947,61.786 13.401,-57.47 c 0.321,-1.474 0.898,-2.664 1.581,-3.729 -1.788,-0.658 -3.755,-0.686 -5.559,-0.119 -0.036,0.012 -0.072,0.031 -0.108,0.044 -0.095,0.039 -0.189,0.078 -0.285,0.115 -0.689,0.256 -1.334,0.626 -1.944,1.069 -0.066,0.049 -0.131,0.102 -0.198,0.149 -0.121,0.095 -0.252,0.177 -0.369,0.279 -0.693,0.606 -1.332,1.31 -1.825,2.191 l -32.162,57.47 h 27.468 z"
     id="path38" /><g
     id="g44">
	<polygon
   style="fill:#d2555a"
   points="203.034,293.072 203.034,255.996 123.584,277.182 123.584,308.962 "
   id="polygon40" />
	<polygon
   style="fill:#d2555a"
   points="308.967,293.072 308.967,255.996 388.417,277.182 388.417,308.962 "
   id="polygon42" />
</g><g
     id="g54">
	<path
   style="fill:#afb9d2"
   d="m 132.412,264.824 v 0 c -4.875,0 -8.828,3.953 -8.828,8.828 v 70.622 c 0,4.875 3.953,8.828 8.828,8.828 v 0 c 4.875,0 8.828,-3.953 8.828,-8.828 v -70.622 c 0,-4.876 -3.953,-8.828 -8.828,-8.828 z"
   id="path46" />
	<path
   style="fill:#afb9d2"
   d="m 167.723,255.996 v 0 c -4.875,0 -8.828,3.953 -8.828,8.828 v 44.139 c 0,4.875 3.953,8.828 8.828,8.828 v 0 c 4.875,0 8.828,-3.953 8.828,-8.828 v -44.139 c 0,-4.876 -3.953,-8.828 -8.828,-8.828 z"
   id="path48" />
	<path
   style="fill:#afb9d2"
   d="m 379.589,264.824 v 0 c 4.875,0 8.828,3.953 8.828,8.828 v 70.622 c 0,4.875 -3.953,8.828 -8.828,8.828 v 0 c -4.875,0 -8.828,-3.953 -8.828,-8.828 v -70.622 c 0,-4.876 3.953,-8.828 8.828,-8.828 z"
   id="path50" />
	<path
   style="fill:#afb9d2"
   d="m 344.278,255.996 v 0 c 4.875,0 8.828,3.953 8.828,8.828 v 44.139 c 0,4.875 -3.953,8.828 -8.828,8.828 v 0 c -4.875,0 -8.828,-3.953 -8.828,-8.828 v -44.139 c 0,-4.876 3.953,-8.828 8.828,-8.828 z"
   id="path52" />
</g><g
     id="g64">
	<circle
   style="fill:#959cb3"
   cx="132.582"
   cy="273.48401"
   r="8.9989996"
   id="circle56" />
	<circle
   style="fill:#959cb3"
   cx="167.72701"
   cy="264.82101"
   r="8.9989996"
   id="circle58" />
	<circle
   style="fill:#959cb3"
   cx="379.41699"
   cy="273.48401"
   r="8.9989996"
   id="circle60" />
	<circle
   style="fill:#959cb3"
   cx="344.28201"
   cy="264.82101"
   r="8.9989996"
   id="circle62" />
</g><g
     id="g70">
	<path
   style="fill:#c7cfe2"
   d="m 256,291.307 v 0 c 4.875,0 8.828,-3.953 8.828,-8.828 v -35.311 c 0,-4.875 -3.953,-8.828 -8.828,-8.828 v 0 c -4.875,0 -8.828,3.953 -8.828,8.828 v 35.311 c 0.001,4.875 3.953,8.828 8.828,8.828 z"
   id="path66" />
	<path
   style="fill:#c7cfe2"
   d="m 282.484,291.307 v 0 c 4.875,0 8.828,-3.953 8.828,-8.828 v -35.311 c 0,-4.875 -3.953,-8.828 -8.828,-8.828 v 0 c -4.875,0 -8.828,3.953 -8.828,8.828 v 35.311 c 0,4.875 3.953,8.828 8.828,8.828 z"
   id="path68" />
</g><path
     style="fill:#afb9d2"
     d="m 229.517,291.307 v 0 c 4.875,0 8.828,-3.953 8.828,-8.828 v -35.311 c 0,-4.875 -3.953,-8.828 -8.828,-8.828 v 0 c -4.875,0 -8.828,3.953 -8.828,8.828 v 35.311 c 0,4.875 3.953,8.828 8.828,8.828 z"
     id="path72" /></g>
<g
   id="g74">
</g>
<g
   id="g76">
</g>
<g
   id="g78">
</g>
<g
   id="g80">
</g>
<g
   id="g82">
</g>
<g
   id="g84">
</g>
<g
   id="g86">
</g>
<g
   id="g88">
</g>
<g
   id="g90">
</g>
<g
   id="g92">
</g>
<g
   id="g94">
</g>
<g
   id="g96">
</g>
<g
   id="g98">
</g>
<g
   id="g100">
</g>
<g
   id="g102">
</g>
</svg>
